<svg xmlns="http://www.w3.org/2000/svg" width="95.849" height="95.844" viewBox="0 0 95.849 95.844"><g transform="translate(-862.968 -443.253)"><g transform="translate(863.969 444.25)"><path d="M980.721,525.041c4.223-2.853,6.917-7.007,9.346-11.31a46.67,46.67,0,0,0-4.817-52.343,46.835,46.835,0,0,0-25.2-15.87,50.31,50.31,0,0,0-21.378-.239c-.353.063-.645.458-.966.7" transform="translate(-902.088 -444.25)" fill="none" stroke="#20103f" stroke-linecap="round" stroke-linejoin="round" stroke-width="2"/><path d="M895.913,563.763a37.252,37.252,0,0,0,15.156,9.568,45.836,45.836,0,0,0,38.685-2.82,61.7,61.7,0,0,0,7.215-4.8,12.428,12.428,0,0,0,2.207-2.152c-1.288-.661-1.019-1.824-1.019-2.916q-.006-19.826,0-39.652a7.728,7.728,0,0,0-.222-2.763h-9.149v44.1" transform="translate(-880.483 -482.491)" fill="none" stroke="#20103f" stroke-linecap="round" stroke-linejoin="round" stroke-width="2"/><path d="M884.205,462.253c-4.384,2.362-7.584,6-10.574,9.853a45.253,45.253,0,0,0-9.558,31.478c.726,11.534,5.417,21.453,13.414,29.792a11.268,11.268,0,0,0,1.611,1.193c1.166-.576,1.032-1.607,1.028-2.624-.017-4.245-.025-8.491.008-12.736.006-.8-.33-1.65.464-2.524h8.893v16.942" transform="translate(-863.969 -453.557)" fill="none" stroke="#20103f" stroke-linecap="round" stroke-linejoin="round" stroke-width="2"/><path d="M944.667,496.775l-2.275-1.9c-1.166-.261-1.51.665-2.037,1.188q-7.363,7.3-14.656,14.662a3.443,3.443,0,0,1-4.123,1.007c-3.37-1.176-6.91-1.858-10.293-3-1.535-.519-2.491-.446-3.652.751-4.416,4.554-8.944,9-13.43,13.485a7.657,7.657,0,0,1-1.7,1.637,2.643,2.643,0,0,1-2.852-.448,1.974,1.974,0,0,1-.468-2.62,6.129,6.129,0,0,1,1.184-1.449c5.2-5.215,10.431-10.4,15.6-15.64a4.148,4.148,0,0,1,4.577-.934c3.537,1.081,7.038,2.281,10.589,3.313a2.3,2.3,0,0,0,2.419-.656c4.954-5.058,9.987-10.04,15.028-15.081l-2.559-2.969" transform="translate(-876.848 -466.931)" fill="none" stroke="#20103f" stroke-linecap="round" stroke-linejoin="round" stroke-width="2"/><path d="M978.677,574.667V542.1h-9.132v32.8" transform="translate(-918.548 -494.837)" fill="none" stroke="#20103f" stroke-linecap="round" stroke-linejoin="round" stroke-width="2"/><path d="M942.856,584.68V561.009h-9.132V584.68" transform="translate(-900.03 -504.61)" fill="none" stroke="#20103f" stroke-linecap="round" stroke-linejoin="round" stroke-width="2"/><path d="M920.824,446.7c1.076.989,2.756,1.072,3.664,2.384a4.634,4.634,0,0,1-2.222,3.144,13.14,13.14,0,0,0-4.807-1.731c-.5,2.087-.15,4.21-.226,6.3-.027.742.557.832,1.18.991a14.665,14.665,0,0,1,3.359,1.2,6.945,6.945,0,0,1,3.859,7.665,8.024,8.024,0,0,1-6.247,6.01c-.725.143-1.443.318-2.164.478,0,2.787,0,2.787-2.4,2.4-.107-1.671-.366-2.732-2.624-3.029a10.952,10.952,0,0,1-6.676-3.678,10.152,10.152,0,0,1,2.594-3.033,24.407,24.407,0,0,0,6.212,3.072c.494-2.127.144-4.227.257-6.308.038-.7-.1-1.063-.953-1.252a15.748,15.748,0,0,1-3.842-1.419c-2.152-1.122-4.457-5.076-3.775-7.156.816-2.487,2.19-4.824,4.962-5.8.646-.227,1.311-.737,1.918-.669,1.624.18,1.8-.82,1.939-2.014.916.312,2.273-.687,2.558,1.462.126.948,2.133.534,3.319.262" transform="translate(-885.448 -444.253)" fill="none" stroke="#20103f" stroke-linecap="round" stroke-linejoin="round" stroke-width="2"/><path d="M995.078,494.5l2.173-11.709-11.786,2.1" transform="translate(-926.779 -464.173)" fill="none" stroke="#20103f" stroke-linecap="round" stroke-linejoin="round" stroke-width="2"/><path d="M920.372,463.283c.513-1.842.093-3.685.293-5.5-2.4-.237-3.565.413-3.879,2.138s.693,2.721,2.15,3.349a6.007,6.007,0,0,0,1.2.252" transform="translate(-891.245 -451.222)" fill="none" stroke="#20103f" stroke-linecap="round" stroke-linejoin="round" stroke-width="2"/><path d="M979.984,625.437H965.565" transform="translate(-916.491 -537.917)" fill="none" stroke="#20103f" stroke-linecap="round" stroke-linejoin="round" stroke-width="2"/><path d="M941.178,619.467H926.759" transform="translate(-896.429 -534.831)" fill="none" stroke="#20103f" stroke-linecap="round" stroke-linejoin="round" stroke-width="2"/><path d="M958.943,610.512H897.9" transform="translate(-881.512 -530.202)" fill="none" stroke="#20103f" stroke-linecap="round" stroke-linejoin="round" stroke-width="2"/><path d="M929.566,482.153c-1.029,2.047-.143,4.166-.631,6.281,2.8-.236,4.053-1.177,4.236-2.917.157-1.494-1.134-2.784-3.364-3.365" transform="translate(-897.554 -463.844)" fill="none" stroke="#20103f" stroke-linecap="round" stroke-linejoin="round" stroke-width="2"/></g></g></svg>