<svg xmlns="http://www.w3.org/2000/svg" width="92.927" height="99.088" viewBox="0 0 92.927 99.088"><g transform="translate(-556.91 -416.124)"><path d="M667.865,507.115a28.321,28.321,0,0,1,2.308,9.519,38.1,38.1,0,0,1-5.635,23.935,36.945,36.945,0,0,1-19.662,15.781,37.47,37.47,0,0,1-30.354-2.282,36.727,36.727,0,0,1-9.761-7.368c.878-1.723,2.758-2.474,3.466-4.174" transform="translate(-28.356 -54.687)" fill="none" stroke="#20103f" stroke-linecap="round" stroke-linejoin="round" stroke-width="2"/><path d="M639.582,459.644c.547-1.954,2.64-2.643,3.53-4.317a37.529,37.529,0,0,0-44.9-7.2,37.916,37.916,0,0,0-17.881,47.03" transform="translate(-12.04 -16.142)" fill="none" stroke="#20103f" stroke-linecap="round" stroke-linejoin="round" stroke-width="2"/><path d="M660.1,495.777a41.728,41.728,0,0,1-2.12-4.33c-.546-1.508-1.328-1.535-2.6-.992a21.409,21.409,0,0,1-3.326,1c-3.2.782-5.373-1.224-4.9-4.5.131-.915.207-1.843.4-2.744.476-2.177.357-2.411-1.776-3.144-1.293-.445-2.592-1.421-3.905-1.1-1.552.384-1.605,2.264-2.37,3.455-1.026,1.6-1.915,3.182-4.326,3.049a3.083,3.083,0,0,1-1.739-.529,17.266,17.266,0,0,1-3.5-4.126c-.825-1.163-1.546-1.06-2.6-.565-4.4,2.063-4.509,2.08-3.091,6.667.683,2.206.524,3.928-1.416,5.311-1.364.972-2.918.492-4.31.334-3.727-.423-3.694-.529-4.917,3-.991,2.858-1.048,2.705,1.578,4.118a14.515,14.515,0,0,1,2.757,1.755c1.916,1.667,2.149,4.014.362,5.686a21.693,21.693,0,0,1-3.333,2.544c-1.256.782-1.469,1.544-.6,2.79a11.867,11.867,0,0,1,1.561,3.131c.4,1.245,1.081,1.017,2,.8a33.252,33.252,0,0,1,4.11-1.043c3.138-.352,4.8,1,4.7,4.16a17.47,17.47,0,0,1-.4,3.33c-.342,1.485-.3,2.405,1.574,2.833,1.378.315,2.856,1.459,4.1,1.154,1.407-.344,1.638-2.325,2.391-3.587.933-1.562,1.789-3.013,4.123-2.854a3.655,3.655,0,0,1,2.357.879c1.63,1.354,2.333,3.5,4.187,4.875,1.542-.77,3.129-1.469,4.613-2.345.719-.424,1.332-.984.667-2.161a13.427,13.427,0,0,1-1.033-3.7,3.763,3.763,0,0,1,3.915-4.907,12.97,12.97,0,0,1,4.107.633,1.476,1.476,0,0,0,2.111-1.04c.13-.394.333-.761.462-1.154,1.266-3.877,1.267-3.865-2.361-5.893-1.837-1.027-3.459-2.094-3.2-4.709.205-2.045,1.856-2.626,3.02-3.7a23.733,23.733,0,0,0,2.724-2.182" transform="translate(-33.346 -38.15)" fill="none" stroke="#20103f" stroke-linecap="round" stroke-linejoin="round" stroke-width="2"/><path d="M693.671,427.415c-.379,1.77-2.263,2.2-3.16,3.517a4.517,4.517,0,0,1-1.186.859,54.925,54.925,0,0,0-14.467-10.108,50.461,50.461,0,0,0-18.262-4.507,58.776,58.776,0,0,0-15.5,1.607" transform="translate(-50.434)" fill="none" stroke="#20103f" stroke-linecap="round" stroke-linejoin="round" stroke-width="2"/><path d="M573.036,632.182c-.209-1.143.47-1.682,1.365-2.172,1.277-.7,1.889-2.725,3.522-2.438,1.308.23,2.107,1.739,3.165,2.638a48.426,48.426,0,0,0,26.669,11.6A53.112,53.112,0,0,0,626,640.421" transform="translate(-9.056 -127.865)" fill="none" stroke="#20103f" stroke-linecap="round" stroke-linejoin="round" stroke-width="2"/><path d="M775.095,446.365c1.41,2.5,1.63,5.357,2.293,8.058,1.135,4.618,2.655,9.158,3.2,13.914" transform="translate(-131.858 -17.773)" fill="none" stroke="#20103f" stroke-linecap="round" stroke-linejoin="round" stroke-width="2"/><path d="M560.356,581.865c-.418,1.115.118,2.1.384,3.141,1.325,5.161,2.673,10.319,3.883,15.508a5.106,5.106,0,0,0,1.03,2.147" transform="translate(-1.28 -100.108)" fill="none" stroke="#20103f" stroke-linecap="round" stroke-linejoin="round" stroke-width="2"/><path d="M731.1,484.686c2.025-.512,3.676.813,5.469,1.27,5.1,1.3,10.086,3.072,15.142,4.573.5.148,1.165.635,1.753.042" transform="translate(-105.122 -40.988)" fill="none" stroke="#20103f" stroke-linecap="round" stroke-linejoin="round" stroke-width="2"/><path d="M580.656,586.937c-6.278-1.929-12.55-3.875-18.838-5.772-1.211-.365-2.481-.538-3.723-.8" transform="translate(0 -99.197)" fill="none" stroke="#20103f" stroke-linecap="round" stroke-linejoin="round" stroke-width="2"/><path d="M740.624,622.336a1.241,1.241,0,0,0-1.169.4c-4.9,5.728-11.1,9.623-17.86,12.745" transform="translate(-99.349 -124.689)" fill="none" stroke="#20103f" stroke-linecap="round" stroke-linejoin="round" stroke-width="2"/><path d="M599.447,426.865c-7.057,2.7-12.8,7.237-17.852,12.752" transform="translate(-14.28 -5.924)" fill="none" stroke="#20103f" stroke-linecap="round" stroke-linejoin="round" stroke-width="2"/><path d="M564.361,478.365c-.085,1.645-1.408,2.783-1.766,4.316" transform="translate(-2.734 -37.218)" fill="none" stroke="#20103f" stroke-linecap="round" stroke-linejoin="round" stroke-width="2"/><path d="M784.057,592.365c-.094,1.64-1.482,2.663-1.962,4.12" transform="translate(-136.112 -106.489)" fill="none" stroke="#20103f" stroke-linecap="round" stroke-linejoin="round" stroke-width="2"/><path d="M654.324,511.362a11.746,11.746,0,1,0,5.069,22.852c5.4-1.7,8.177-5.765,8.207-11.278a11.5,11.5,0,0,0-8.371-11.186,15.744,15.744,0,0,0-4.709-.388" transform="translate(-52.285 -57.267)" fill="none" stroke="#20103f" stroke-linecap="round" stroke-linejoin="round" stroke-width="2"/></g></svg>