<svg xmlns="http://www.w3.org/2000/svg" width="100.031" height="68.158" viewBox="0 0 100.031 68.158"><g transform="translate(-523.002 -244.224)"><g transform="translate(524 245.212)"><path d="M1033.155,613.23h-8.808a6.66,6.66,0,0,1-5.223-2.127c-.907-1-1.864-1.951-2.8-2.922a6.035,6.035,0,0,0-4.656-1.918c-2.524.042-5.049.01-7.573.01" transform="translate(-950.228 -565.752)" fill="none" stroke="#000" stroke-linecap="round" stroke-linejoin="round" stroke-width="2"/><path d="M1168.595,728.752a8.647,8.647,0,0,1,.5,1.685,4.9,4.9,0,1,0,3.933-6.5,4.775,4.775,0,0,0-4.036,3.586,7.484,7.484,0,0,1-.4,1.177" transform="translate(-1096.27 -670.166)" fill="none" stroke="#000" stroke-linecap="round" stroke-linejoin="round" stroke-width="2"/><path d="M702.095,652.485a32.987,32.987,0,0,1,7.409-2.225,34.512,34.512,0,0,1,7.683-.425,33.649,33.649,0,0,1,8.356,1.423,6.686,6.686,0,0,1,2.921,1.282.2.2,0,0,0,.111.055c1.747.151,3.077,1.24,4.472,2.1a26.935,26.935,0,0,1,5.859,4.9,11.2,11.2,0,0,0,3.358,2.756,5.634,5.634,0,0,0,2.468.558c3.216.008,6.433,0,9.649,0" transform="translate(-682.112 -604.389)" fill="none" stroke="#000" stroke-linecap="round" stroke-linejoin="round" stroke-width="2"/><path d="M668.264,316.309c-3.16,0-6.321.016-9.481-.007a6.114,6.114,0,0,0-3.983,1.41,14.849,14.849,0,0,0-1.743,1.623,29.162,29.162,0,0,1-8.129,6.347,5.129,5.129,0,0,1-2.3.893c-.245,0-.328.237-.5.347a11.879,11.879,0,0,1-2.87,1.1,31.522,31.522,0,0,1-4.375,1c-1.144.2-2.314.265-3.476.349a31.7,31.7,0,0,1-5.833-.12,32.62,32.62,0,0,1-6.287-1.326,33.479,33.479,0,0,1-14.191-8.814" transform="translate(-595.996 -308.326)" fill="none" stroke="#000" stroke-linecap="round" stroke-linejoin="round" stroke-width="2"/><path d="M1316.595,367.328c.329.579.368,1.258.666,1.855a4.419,4.419,0,1,0-.337-2.866,6.058,6.058,0,0,1-.329.955" transform="translate(-1227.665 -349.639)" fill="none" stroke="#000" stroke-linecap="round" stroke-linejoin="round" stroke-width="2"/><path d="M1263.595,633.9c.318.665.355,1.424.724,2.079a4.41,4.41,0,1,0,5.058-6.357,4.508,4.508,0,0,0-4.842,1.8,12.625,12.625,0,0,0-.94,2.421" transform="translate(-1180.611 -586.362)" fill="none" stroke="#000" stroke-linecap="round" stroke-linejoin="round" stroke-width="2"/><path d="M1209.595,502.562a14.932,14.932,0,0,0,.629,1.79,4.417,4.417,0,0,0,7.994,0,4.314,4.314,0,0,0-1.612-5.543,4.408,4.408,0,0,0-6.676,2.633c-.1.358-.223.711-.335,1.066" transform="translate(-1132.67 -469.726)" fill="none" stroke="#000" stroke-linecap="round" stroke-linejoin="round" stroke-width="2"/><path d="M1086.6,402.347c-2.936,0-5.872.007-8.808,0a6.849,6.849,0,0,0-5.569,2.514,33.967,33.967,0,0,1-2.912,2.976,5.493,5.493,0,0,1-3.861,1.473,7.1,7.1,0,0,0-2.127.123c-.125.038-.245.025-.276-.02-.255-.362-.6-.246-.9-.151a2,2,0,0,1-.564.042c-1.327.039-2.657-.065-3.983.06" transform="translate(-997.725 -384.714)" fill="none" stroke="#000" stroke-linecap="round" stroke-linejoin="round" stroke-width="2"/><path d="M575.343,250.279c-.62.161-1.02-.323-1.446-.581a31.82,31.82,0,0,0-9.943-3.846,27.67,27.67,0,0,0-4.149-.587,1.265,1.265,0,0,0-.665.093,2.432,2.432,0,0,1-2.143.214,1.284,1.284,0,0,0-.391-.006,2.735,2.735,0,0,1-1.515-.224c-.382-.238-.8-.082-1.177-.041a33.748,33.748,0,0,0-9.259,2.284,33.358,33.358,0,0,0-10.267,6.62,3.964,3.964,0,0,0-1.347,1.627c-.012.038.033.075-.051.12-1.3.694-1.949,1.985-2.8,3.084a27.716,27.716,0,0,0-3.242,5.557,32.086,32.086,0,0,0-2.331,7.339,47.375,47.375,0,0,0-.6,4.771.79.79,0,0,0,0,.279c.325,1.118-.109,2.238.028,3.37.133,1.1.193,2.213.373,3.305a33.228,33.228,0,0,0,2.286,7.8,30.473,30.473,0,0,0,5.638,8.783c.505.542.967,1.126,1.493,1.647a33.149,33.149,0,0,0,9.7,6.676,32.463,32.463,0,0,0,6.954,2.249,27.577,27.577,0,0,0,4.152.556,1.015,1.015,0,0,0,.5-.06,3.875,3.875,0,0,1,2.589-.242c.6.1,1.2.126,1.8.27a4.895,4.895,0,0,0,1.786-.083,35.1,35.1,0,0,0,8.416-2.237,33.12,33.12,0,0,0,6.616-3.652,1.41,1.41,0,0,1,.677-.3" transform="translate(-524 -245.212)" fill="none" stroke="#000" stroke-linecap="round" stroke-linejoin="round" stroke-width="2"/><path d="M1173.719,271.78a4.9,4.9,0,1,1-4.167,7.641,26.184,26.184,0,0,1-1.047-2.538.252.252,0,0,1,0-.166c.445-1.754,1.017-3.442,2.752-4.367a4.373,4.373,0,0,1,2.408-.57" transform="translate(-1096.177 -268.789)" fill="none" stroke="#000" stroke-linecap="round" stroke-linejoin="round" stroke-width="2"/><path d="M818.988,250.365c-.3,5.7-.122,11.407-.166,17.111q-.045,5.834-.056,11.669c-.008,8.041.035,16.082-.019,24.123-.024,3.628,0,7.256-.044,10.884,0,.431-.07.86-.108,1.29" transform="translate(-785.541 -249.787)" fill="none" stroke="#000" stroke-linecap="round" stroke-linejoin="round" stroke-width="2"/><path d="M927.719,566.365a5.536,5.536,0,0,0-1.626.339,4.307,4.307,0,0,0-2.781,4.037,4.364,4.364,0,0,0,5.3,4.374,4.434,4.434,0,0,0,3.4-3.24,3.922,3.922,0,0,0-.4-3.14,4.189,4.189,0,0,0-2.83-2.212c-.337-.089-.685-.046-1.012-.158" transform="translate(-878.508 -530.331)" fill="none" stroke="#000" stroke-linecap="round" stroke-linejoin="round" stroke-width="2"/><path d="M985.565,429.779c-.341-.615-.345-1.337-.664-1.968a4.414,4.414,0,0,0-4.216-2.458,4.339,4.339,0,0,0-3.92,2.97,4.418,4.418,0,0,0,4.144,5.845,4.466,4.466,0,0,0,4.38-3.6,6.447,6.447,0,0,1,.22-.73" transform="translate(-925.751 -405.134)" fill="none" stroke="#000" stroke-linecap="round" stroke-linejoin="round" stroke-width="2"/><path d="M712.488,249.365a3.134,3.134,0,0,1-.891,1.521,58.632,58.632,0,0,0-8.259,10.818,39.493,39.493,0,0,0-2.743,5.389" transform="translate(-680.781 -248.899)" fill="none" stroke="#000" stroke-linecap="round" stroke-linejoin="round" stroke-width="2"/><path d="M674.933,408.365a36.345,36.345,0,0,0-2.128,6.172,33.66,33.66,0,0,0-1,10.265,38.609,38.609,0,0,0,3.11,12.911,57.559,57.559,0,0,0,11.353,16.875,3.847,3.847,0,0,1,.725,1.182" transform="translate(-655.175 -390.059)" fill="none" stroke="#000" stroke-linecap="round" stroke-linejoin="round" stroke-width="2"/><path d="M573.72,537.365H526.595" transform="translate(-526.304 -504.585)" fill="none" stroke="#000" stroke-linecap="round" stroke-linejoin="round" stroke-width="2"/><path d="M1107.086,466.365a15.994,15.994,0,0,0,.45,2.749c.175,1.173.321,2.35.391,3.535a32,32,0,0,1-.277,6.677,4.2,4.2,0,0,0,0,.617" transform="translate(-1041.662 -441.551)" fill="none" stroke="#000" stroke-linecap="round" stroke-linejoin="round" stroke-width="2"/><path d="M841.4,727.365a1.66,1.66,0,0,1-.341,1.288,63.318,63.318,0,0,1-7.185,9.027,3.166,3.166,0,0,0-.778,1.354" transform="translate(-798.414 -673.267)" fill="none" stroke="#000" stroke-linecap="round" stroke-linejoin="round" stroke-width="2"/><path d="M616.81,674.365a21.525,21.525,0,0,0-3.865,1.974,35.59,35.59,0,0,0-6.851,5.431" transform="translate(-596.884 -626.213)" fill="none" stroke="#000" stroke-linecap="round" stroke-linejoin="round" stroke-width="2"/><path d="M883.564,311.365c-.04.335.244.507.4.723a54.939,54.939,0,0,1,4.867,8.032c.334.674.6,1.381.9,2.073" transform="translate(-843.217 -303.943)" fill="none" stroke="#000" stroke-linecap="round" stroke-linejoin="round" stroke-width="2"/><path d="M1156.715,537.365h-6.62" transform="translate(-1079.846 -504.585)" fill="none" stroke="#000" stroke-linecap="round" stroke-linejoin="round" stroke-width="2"/><path d="M1089.867,414.365a2.714,2.714,0,0,0,.347,1.622,26.138,26.138,0,0,1,1.01,2.807,3.874,3.874,0,0,1,.1,1.013" transform="translate(-1026.35 -395.386)" fill="none" stroke="#000" stroke-linecap="round" stroke-linejoin="round" stroke-width="2"/><path d="M831.595,249.865c.475,1.055,1.46,1.687,2.139,2.575a17.474,17.474,0,0,0,1.462,1.678,1.058,1.058,0,0,1,.326.908" transform="translate(-797.082 -249.343)" fill="none" stroke="#000" stroke-linecap="round" stroke-linejoin="round" stroke-width="2"/><path d="M922.058,675.365c-.374.823-.77,1.636-1.113,2.472-.173.422-.4.609-.851.473" transform="translate(-875.652 -627.101)" fill="none" stroke="#000" stroke-linecap="round" stroke-linejoin="round" stroke-width="2"/><path d="M1021.651,527.365q-.028,1.038-.056,2.076" transform="translate(-965.764 -495.707)" fill="none" stroke="#000" stroke-linecap="round" stroke-linejoin="round" stroke-width="2"/><path d="M984.095,527.365v2.244" transform="translate(-932.472 -495.707)" fill="none" stroke="#000" stroke-linecap="round" stroke-linejoin="round" stroke-width="2"/><path d="M1059.095,527.365v2.244" transform="translate(-999.056 -495.707)" fill="none" stroke="#000" stroke-linecap="round" stroke-linejoin="round" stroke-width="2"/></g></g></svg>