<svg xmlns="http://www.w3.org/2000/svg" width="132.691" height="129.658" viewBox="0 0 132.691 129.658"><g transform="translate(-42.953 238.438)"><g transform="translate(42.953 -238.438)"><path d="M231.218-231.943q-14.768,0-29.537,0c-6.329.006-10.449,4.122-10.455,10.476q-.022,22.223-.005,44.445c0,2.134.006,4.267,0,6.4,0,2.24-1.28,3.739-3.21,3.784s-3.228-1.426-3.229-3.731c-.007-17.276-.037-34.553.017-51.829a16.337,16.337,0,0,1,15.976-15.976q30.581-.134,61.163,0c8.733.039,15.927,7.524,15.954,16.486q.09,29.885-.005,59.771A16.534,16.534,0,0,1,260.953-145.3q-26.89.03-53.78.007a4.217,4.217,0,0,1-3.14-.861,3.058,3.058,0,0,1-.946-3.291,3.091,3.091,0,0,1,2.589-2.243,10.616,10.616,0,0,1,1.806-.069q26.611,0,53.222,0c6.582,0,10.741-4.126,10.743-10.67.006-19.6-.087-39.2.062-58.795A10.533,10.533,0,0,0,260.754-232C250.913-231.791,241.064-231.943,231.218-231.943Z" transform="translate(-145.249 238.438)"/><path d="M72.217,75.234q-8.707,0-17.414,0c-7-.011-11.82-4.819-11.833-11.847q-.032-17.484,0-34.967c.015-6.916,4.876-11.727,11.8-11.738q9.264-.014,18.529,0a9.406,9.406,0,0,1,1.937.142,3.112,3.112,0,0,1,2.578,3.182,3.281,3.281,0,0,1-2.754,3.062,9.29,9.29,0,0,1-1.527.072q-9.264.006-18.529,0c-3.784,0-5.573,1.773-5.574,5.513q-.006,17.275,0,34.549c0,3.8,1.747,5.559,5.522,5.562q17.344.01,34.689,0c3.707,0,5.438-1.751,5.441-5.472.006-5.99-.006-11.981.006-17.971a10.147,10.147,0,0,1,.174-2.074,2.923,2.923,0,0,1,3-2.385,2.974,2.974,0,0,1,3.086,2.3,6.823,6.823,0,0,1,.168,1.653q.015,9.4,0,18.807a11.223,11.223,0,0,1-11.61,11.606C84.012,75.248,78.114,75.234,72.217,75.234Z" transform="translate(-42.953 54.419)"/><path d="M206.031-134.765H192.877c-.557,0-1.117.036-1.67-.009A2.989,2.989,0,0,1,188.3-137.9a3.135,3.135,0,0,1,2.823-3.1c1.153-.116,2.314-.186,3.473-.214q9.606-.225,19.212-.415c2.526-.05,3.864,1.385,3.78,3.878-.193,5.751-.336,11.5-.512,17.255-.05,1.623-.13,3.245-.218,4.867a3.01,3.01,0,0,1-3.177,3.147,2.955,2.955,0,0,1-3.083-3.222c.043-4.269.188-8.538.27-12.807a2.24,2.24,0,0,0-.26-1.615c-1.087,1.044-2.16,2.039-3.192,3.073q-13.375,13.407-26.741,26.823Q166.8-86.354,152.9-72.507c-1.807,1.8-3.592,3.628-5.445,5.381-1.623,1.535-3.512,1.576-4.817.216s-1.175-3.258.376-4.808c5.512-5.508,11.08-10.962,16.549-16.514,3.283-3.333,6.561-6.677,9.853-10,4.108-4.145,8.326-8.192,12.476-12.3,7.588-7.512,15.112-15.087,22.658-22.64C205.067-133.693,205.553-134.251,206.031-134.765Z" transform="translate(-114.214 168.612)"/></g></g></svg>