<svg xmlns="http://www.w3.org/2000/svg" width="179.347" height="126.647" viewBox="0 0 179.347 126.647"><g transform="translate(-764.704 -360.507)"><g transform="translate(764.704 360.507)"><path d="M979.188,410.754c.058,3.3-1.71,5.175-3.552,7.017-19.055,19.058-38.308,37.925-57.04,57.3A46.456,46.456,0,0,1,897.888,487.8c-7.811,2.338-15.436,5.3-23.152,7.959-.9.31-1.946,1.068-2.779.081-.649-.77-.077-1.73.2-2.549q5.437-15.864,10.905-31.717a10.759,10.759,0,0,1,2.9-4.042q32.491-32.507,64.955-65.041c2.243-2.252,4.763-3.567,7.819-2.658,9.751,2.9,16.216,9.447,20.073,18.724a5.6,5.6,0,0,1,.3,1.305A8.142,8.142,0,0,1,979.188,410.754ZM906.2,477.967a3.157,3.157,0,0,0,2.431-1.352q24.919-24.923,49.848-49.836c1.362-1.358,1.315-2.27-.022-3.573-4.325-4.218-8.614-8.477-12.8-12.828-1.617-1.679-2.782-1.679-4.407,0-4.584,4.741-9.3,9.353-13.964,14.018q-17.678,17.686-35.364,35.364c-1.383,1.38-2.48,2.521-.484,4.372,4.424,4.105,8.707,8.362,13.067,12.537A16.854,16.854,0,0,0,906.2,477.967Zm67.261-68.091a9.545,9.545,0,0,0-2.267-4.075,41.96,41.96,0,0,0-9.856-8.448c-4.363-2.594-4.409-2.594-7.909.888a51.95,51.95,0,0,1-4.087,3.941c-1.717,1.368-1.392,2.428-.009,3.781q6.572,6.425,13.016,12.98c1.363,1.391,2.45,1.627,3.869.084,1.883-2.049,3.923-3.954,5.882-5.934A3.791,3.791,0,0,0,973.461,409.876ZM899.6,480.3a5.138,5.138,0,0,0-.565-.78c-3.539-3.4-7.047-6.839-10.655-10.167-1.454-1.341-1.893.126-2.254,1.149q-2.5,7.1-4.908,14.243c-.23.681-.947,1.505-.162,2.147.667.546,1.5.019,2.216-.226q7.439-2.562,14.856-5.188C898.707,481.268,899.5,481.234,899.6,480.3Z" transform="translate(-799.843 -370.046)" fill="#20103f"/><path d="M824.357,487.143c-7.649.022-9.913-1.957-10.952-9.529a7.933,7.933,0,0,0-12.517-5.317c-6.046,4.627-9.4,4.387-14.847-1.066-2.294-2.3-4.623-4.558-6.862-6.906-3.876-4.064-4.025-7.73-.711-12.315,1.09-1.508,3.243-2.806,2.879-4.689-.5-2.579-1.844-5.014-2.973-7.443-.551-1.187-1.879-1.009-2.979-1.138-8.235-.967-10.6-3.623-10.661-11.99-.02-2.909-.081-5.823.048-8.727.269-6.047,3.319-9.227,9.373-9.688,2.261-.172,4.266-.407,4.945-3.021.755-2.905,3.462-5.38.369-8.856-4.69-5.271-4.178-9.234.883-14.3,2.372-2.376,4.73-4.766,7.135-7.107,3.813-3.71,7.747-3.925,12.066-.9,1.41.986,2.5,3.148,4.432,2.586a46.231,46.231,0,0,0,7.975-3.446c1.075-.551.854-1.97.98-3.072.833-7.3,3.517-9.686,10.94-9.7,3.245-.005,6.491-.019,9.735.01,5.8.051,9.141,2.749,9.553,8.524.238,3.341,1.728,4.7,4.557,6.062,3.835,1.853,6.714,2.1,10.145-1.025,3.489-3.183,7.64-2.6,11.178.727,2.77,2.606,5.421,5.34,8.08,8.061,4.271,4.369,4.468,8.707.668,13.439-2.688,3.346-2.153,9.262,1.1,12.051.613.526,2.115.661,1.444,1.808-1,1.711-2.266,3.39-4.423,3.8a1.981,1.981,0,0,1-2.466-1.27,70,70,0,0,0-4.876-12.477c-.675-1.307.456-2.3,1.232-3.244,7-8.46,6.071-7-.789-14.061-.078-.081-.158-.158-.237-.238-5.625-5.64-5.713-5.746-11.887-.646-2.218,1.832-3.939,2.345-6.454.624a24.1,24.1,0,0,0-8.321-3.495c-2.886-.649-3.915-2.334-4.25-5.116-.943-7.825-1.029-7.889-8.848-7.8-9.386.109-9.966-1.751-10.7,8.776a3.785,3.785,0,0,1-3.14,3.77,39.528,39.528,0,0,0-9.907,4.074,3.571,3.571,0,0,1-4.561-.421c-7.942-6.277-6.118-6.214-13.21.8-6.621,6.546-7,5.607-.9,13.064a4.033,4.033,0,0,1,.549,5.136,28.866,28.866,0,0,0-3.094,7.4c-.757,3.473-2.678,4.641-6,4.982-7.271.746-7.257.88-7.266,8.224,0,1.9.148,3.819-.034,5.7-.334,3.468,1.388,5.278,4.586,5.111,5.474-.285,7.528,2.409,9.727,7.255,2.729,6.015,3.6,10.59-1.758,15.254-1.844,1.605-1.32,3.608.385,5.283,2.394,2.353,4.8,4.7,7.108,7.134,1.89,1.988,4.1,2.387,5.84.371,4.484-5.194,8.892-3.939,14.694-1.871s8.011,5.03,7.82,10.678c-.12,3.516,1.827,4.759,5.111,4.511a21.975,21.975,0,0,1,3.69.019c1.309.123,3.344-.483,3.106,1.871-.174,1.728-.573,3.69-3.016,3.766C826.819,487.174,825.588,487.143,824.357,487.143Z" transform="translate(-764.704 -360.507)" fill="#20103f"/><path d="M846.85,416.524a25.513,25.513,0,0,1,25.778,25.756c-.008,14.524-11.449,25.765-26.165,25.706a25.732,25.732,0,0,1,.387-51.463Zm-19.988,25.788a20.032,20.032,0,1,0,19.932-20.085A19.884,19.884,0,0,0,826.862,442.312Z" transform="translate(-783.175 -378.911)" fill="#20103f"/></g></g></svg>