<svg xmlns="http://www.w3.org/2000/svg" width="148.585" height="148.746" viewBox="0 0 148.585 148.746"><g transform="translate(-77.538 115.813)"><g transform="translate(77.538 -115.813)"><path d="M186.657,32.933a49,49,0,0,1-8.91-2.491A34.821,34.821,0,0,1,160.29,14.558a1.659,1.659,0,0,0-2.183-.938c-24.547,5.112-45.729-1.257-63.115-19.245a60.371,60.371,0,0,1-17.22-38.269C75.827-70.029,86-90.546,107.606-105.216c12.043-8.177,25.636-11.411,40.112-10.426A65.564,65.564,0,0,1,206.149-67.77a64.85,64.85,0,0,1,.661,32.687,1.647,1.647,0,0,0,.937,2.182A34.766,34.766,0,0,1,225.889-7.513c.059.33.155.654.234.981V1.883a6.593,6.593,0,0,0-.184.7c-1.734,11.2-7.517,19.692-17.131,25.614a36.83,36.83,0,0,1-13.735,4.739Zm-30.547-35.2a23.636,23.636,0,0,1,.4-5.71c3.6-19.252,20.633-31.5,40.022-28.733,1.208.173,1.506-.216,1.715-1.244a60.161,60.161,0,0,0,1.19-15.112,55.591,55.591,0,0,0-4.42-19.243,56.313,56.313,0,0,0-58.665-34.016,54.463,54.463,0,0,0-31.676,14.677C90.751-78.457,84.687-62.16,86.933-43.064c1.791,15.226,9,27.632,20.973,37.133,11.8,9.37,25.372,13.244,40.381,12.054a49.109,49.109,0,0,0,7.294-1.142c.805-.188,1.111-.522.927-1.418A22.938,22.938,0,0,1,156.111-2.267Zm61.2.113c-.29-14.484-11.485-25.977-26.318-25.965A25.647,25.647,0,0,0,165.069-2.174a25.794,25.794,0,0,0,25.847,26.225A26.5,26.5,0,0,0,217.309-2.154Z" transform="translate(-77.538 115.813)"/><path d="M287.75,22.5c0-5.221.034-10.443-.025-15.664-.015-1.3.354-1.821,1.714-1.747a52.355,52.355,0,0,0,5.509,0c1.326-.067,1.746.39,1.736,1.724-.054,7.493-.026,14.987-.025,22.481,0,1.929,0,1.933,1.886,1.934,4.593,0,9.186.035,13.778-.021,1.268-.016,1.849.293,1.772,1.689-.107,1.928-.065,3.867-.012,5.8.028,1.038-.307,1.462-1.4,1.457q-11.748-.048-23.5,0c-1.2.006-1.457-.495-1.45-1.56C287.768,33.232,287.75,27.866,287.75,22.5Z" transform="translate(-226.612 30.069)"/><path d="M188.683-10.34a1.325,1.325,0,0,1-.529.916C186.587-7.848,185-6.3,183.451-4.7c-.618.639-1.086.589-1.683-.027-1.546-1.6-3.122-3.163-4.71-4.717-.561-.55-.616-1-.026-1.575,1.626-1.585,3.22-3.2,4.822-4.81.412-.413.823-.7,1.351-.169q2.609,2.617,5.218,5.234A1.9,1.9,0,0,1,188.683-10.34Z" transform="translate(-147.806 45.224)"/><path d="M400.33-10.364a1.251,1.251,0,0,1-.513.916c-1.567,1.576-3.158,3.129-4.7,4.726-.606.627-1.073.633-1.682,0-1.546-1.6-3.124-3.163-4.712-4.718-.55-.538-.657-.986-.053-1.574,1.626-1.585,3.219-3.2,4.824-4.811.4-.4.81-.741,1.349-.2q2.613,2.613,5.221,5.232A2.059,2.059,0,0,1,400.33-10.364Z" transform="translate(-297.916 45.234)"/><path d="M182.4,195.307a1.287,1.287,0,0,1,.915.514c1.576,1.567,3.13,3.157,4.726,4.7.624.6.636,1.074,0,1.684-1.6,1.545-3.163,3.124-4.718,4.711-.537.548-.986.657-1.574.054-1.584-1.627-3.2-3.219-4.811-4.824-.4-.4-.736-.811-.2-1.349q2.613-2.614,5.231-5.223A2.124,2.124,0,0,1,182.4,195.307Z" transform="translate(-147.701 -104.848)"/><path d="M292.388-54.7c4.325,0,4.325,0,4.324,4.291,0,1.158-.023,2.317,0,3.475.015.783-.3,1.144-1.109,1.137q-3.331-.03-6.661,0c-.783.007-1.144-.3-1.137-1.109.02-2.22.026-4.441,0-6.661-.012-.913.446-1.161,1.257-1.141C290.167-54.677,291.278-54.7,292.388-54.7Z" transform="translate(-226.666 72.473)"/><path d="M147.007,99.592c0,4.325,0,4.325-4.291,4.324-1.159,0-2.318-.023-3.476,0-.783.015-1.144-.3-1.137-1.109q.03-3.331,0-6.661c-.007-.783.3-1.144,1.109-1.137,2.22.02,4.441.026,6.661,0,.913-.012,1.161.446,1.141,1.257C146.986,97.371,147.007,98.482,147.007,99.592Z" transform="translate(-120.493 -33.708)"/><path d="M442.056,95.04c1.11,0,2.22.013,3.331,0,.727-.011,1.052.311,1.048,1.043q-.021,3.4,0,6.806c0,.727-.311,1.052-1.043,1.048q-3.4-.02-6.806,0c-.727,0-1.052-.311-1.048-1.043q.02-3.4,0-6.806c0-.727.311-1.058,1.043-1.047C439.739,95.053,440.9,95.04,442.056,95.04Z" transform="translate(-332.867 -33.73)"/><path d="M296.7,249.053c0,1.11-.025,2.221.007,3.331.024.835-.276,1.244-1.167,1.232-2.172-.03-4.345-.026-6.517,0-.834.01-1.244-.277-1.232-1.169q.044-3.258,0-6.517c-.01-.834.277-1.244,1.168-1.232,2.172.03,4.345.036,6.517,0,.97-.018,1.268.424,1.234,1.317C296.675,247.024,296.7,248.039,296.7,249.053Z" transform="translate(-226.662 -139.876)"/><path d="M444.86,241.222a8.945,8.945,0,0,1-.607.742q-9.481,9.492-18.961,18.987c-.692.7-1.157.586-1.79-.054q-5.1-5.157-10.256-10.257c-.62-.613-.647-1.056-.008-1.671q2.4-2.314,4.717-4.717c.62-.644,1.075-.607,1.673.018,1.269,1.328,2.629,2.57,3.875,3.918.708.766,1.169.676,1.863-.027,4.076-4.129,8.212-8.2,12.279-12.335.815-.829,1.357-.973,2.2-.046,1.4,1.534,2.923,2.956,4.389,4.43A1.535,1.535,0,0,1,444.86,241.222Z" transform="translate(-315.301 -133.102)"/></g></g></svg>