<svg xmlns="http://www.w3.org/2000/svg" xmlns:xlink="http://www.w3.org/1999/xlink" width="1643" height="1051" viewBox="0 0 1643 1051"><defs><linearGradient id="a" x1="0.5" x2="0.5" y2="1" gradientUnits="objectBoundingBox"><stop offset="0" stop-color="#c8e3e4"/><stop offset="1" stop-color="#d5d8f5"/></linearGradient></defs><g transform="translate(-139 -1930.684)"><rect width="1643" height="1051" rx="33" transform="translate(139 1930.684)" fill="url(#a)"/><g transform="matrix(0.951, -0.309, 0.309, 0.951, 83.207, 3002.942)"><g transform="translate(875.071 5.637)"><path d="M966.065,5.751q36.134,0,72.269.021c1.041,0,2.455-.571,3.028.637.456.963-.632,1.8-1.156,2.62-3.612,5.631-7.349,11.184-10.843,16.887-1.411,2.3-3.152,3.046-5.765,3.02-10.817-.108-21.636-.052-32.454-.017-.948,0-2.227-.49-2.773.531s.582,1.807,1.083,2.619c3.517,5.711,6.9,11.494,8.385,18.124.52,2.315,1.987,2.545,3.95,2.537q17.9-.069,35.8,0c1.188,0,2.765-.517,3.459.581.86,1.358-.619,2.434-1.3,3.5-3.477,5.452-7.08,10.824-10.52,16.3a5.491,5.491,0,0,1-5.217,2.775c-7.133.032-14.263.367-21.4.494-2.046.036-3.223.539-3.68,2.849-4.443,22.459-18.007,37.584-38.413,46.949-11.05,5.071-22.808,7.568-34.9,8.523-.971.077-2.3-.3-2.762.71-.551,1.19.75,1.987,1.392,2.79q20.786,25.992,41.648,51.92,18.842,23.476,37.667,46.965a26.017,26.017,0,0,1,1.812,2.4c2.064,3.291,1.024,5.378-2.805,5.426-9.479.122-18.959.124-28.438.244a5.125,5.125,0,0,1-4.307-2.043q-38.1-45.3-76.245-90.556a97.749,97.749,0,0,0-7.2-8.351c-3.233-3.055-3.972-6.767-4.022-10.864-.049-4.014-.029-8.031-.185-12.043-.1-2.544.582-3.439,3.439-3.269,15.312.913,30.563.462,45.42-3.883,10.911-3.191,20.686-8.219,27.48-17.87,3.842-5.456,5.645-11.551,6.449-18.059.225-1.827-.564-2.419-2.239-2.4-2.787.031-5.576,0-8.364,0q-37.808,0-75.615-.017c-1.193,0-2.854.569-3.468-.486-.765-1.316.8-2.38,1.5-3.436,3.448-5.206,7.148-10.253,10.408-15.57,1.765-2.877,3.913-3.676,7.141-3.658,21.078.124,42.156.075,63.235.035,1.257,0,2.994.7,3.664-.725.531-1.128-.755-2.23-1.439-3.2-7.246-10.333-17.892-15.014-29.683-17.772-8.218-1.923-16.617-1.672-24.956-1.929-8.691-.268-17.4-.114-26.095-.173-.965-.007-2.176.338-2.781-.654-.656-1.079.437-1.848.951-2.629,3.615-5.5,7.38-10.9,10.879-16.467a6.283,6.283,0,0,1,6.033-3.205c23.978.08,47.956.046,71.934.046Z" transform="translate(-875.071 -5.637)" fill="#fff"/></g></g><g transform="translate(920.708 1558.113) rotate(39)"><g transform="translate(875.071 5.637)"><path d="M928.479,5.7q21.209,0,42.417.012c.611,0,1.441-.335,1.777.374.268.565-.371,1.058-.678,1.538-2.12,3.305-4.314,6.564-6.364,9.911a3.45,3.45,0,0,1-3.383,1.773c-6.349-.064-12.7-.031-19.048-.01-.556,0-1.307-.288-1.627.312s.342,1.06.636,1.537c2.064,3.352,4.047,6.746,4.921,10.638.305,1.359,1.166,1.494,2.318,1.489q10.506-.041,21.012,0c.7,0,1.623-.3,2.03.341.5.8-.363,1.429-.761,2.052-2.041,3.2-4.155,6.353-6.174,9.567a3.223,3.223,0,0,1-3.062,1.629c-4.187.019-8.372.216-12.558.29-1.2.021-1.891.316-2.16,1.672-2.608,13.182-10.569,22.059-22.546,27.556a59.949,59.949,0,0,1-20.486,5c-.57.045-1.348-.173-1.621.417-.323.7.44,1.166.817,1.637q12.2,15.255,24.445,30.474,11.059,13.779,22.108,27.565a15.25,15.25,0,0,1,1.064,1.41c1.211,1.932.6,3.156-1.646,3.185-5.563.072-11.128.073-16.691.143a3.008,3.008,0,0,1-2.528-1.2q-22.36-26.588-44.751-53.15a57.371,57.371,0,0,0-4.228-4.9c-1.9-1.793-2.331-3.972-2.36-6.377-.029-2.356-.017-4.714-.109-7.068-.058-1.493.342-2.018,2.018-1.919,8.987.536,17.938.271,26.659-2.279,6.4-1.873,12.141-4.824,16.129-10.488a22.732,22.732,0,0,0,3.785-10.6c.132-1.072-.331-1.42-1.314-1.408-1.636.018-3.273,0-4.909,0q-22.191,0-44.381-.01c-.7,0-1.675.334-2.035-.285-.449-.772.468-1.4.878-2.016,2.024-3.056,4.2-6.018,6.109-9.139a4.239,4.239,0,0,1,4.192-2.147c12.371.073,24.743.044,37.115.021.738,0,1.758.41,2.151-.426.311-.662-.443-1.309-.845-1.881-4.253-6.065-10.5-8.812-17.422-10.431-4.824-1.129-9.753-.981-14.647-1.132-5.1-.157-10.21-.067-15.316-.1-.566,0-1.277.2-1.632-.384-.385-.634.256-1.084.558-1.543,2.122-3.227,4.332-6.4,6.385-9.665a3.688,3.688,0,0,1,3.541-1.881c14.074.047,28.147.027,42.221.027Z" transform="translate(-875.071 -5.637)" fill="#fff"/></g></g></g></svg>